<?xml version="1.0" standalone="no"?>
<!DOCTYPE svg PUBLIC "-//W3C//DTD SVG 20010904//EN"
 "http://www.w3.org/TR/2001/REC-SVG-20010904/DTD/svg10.dtd">
<svg version="1.0" xmlns="http://www.w3.org/2000/svg"
 width="1024.000000pt" height="1024.000000pt" viewBox="0 0 1024.000000 1024.000000"
 preserveAspectRatio="xMidYMid meet">
<metadata>
Created by potrace 1.14, written by Peter Selinger 2001-2017
</metadata>
<g transform="translate(0.000000,1024.000000) scale(0.100000,-0.100000)"
fill="#000000" stroke="none">
<path d="M4980 8854 c-236 -20 -384 -50 -628 -129 -240 -78 -328 -97 -449 -97
-57 0 -103 -2 -103 -4 0 -2 17 -12 38 -23 45 -23 181 -45 224 -36 50 11 25
-10 -41 -34 -149 -54 -401 -203 -551 -325 -166 -135 -386 -371 -436 -469 -9
-17 -50 -68 -91 -111 -40 -44 -72 -85 -70 -90 2 -6 -24 -40 -59 -76 -159 -165
-279 -373 -325 -564 -21 -92 -26 -251 -8 -322 15 -59 34 -71 25 -16 -15 95 45
311 123 441 58 97 74 114 46 48 -37 -86 -100 -341 -125 -507 -34 -229 -74
-321 -163 -379 -27 -18 -34 -27 -25 -33 35 -22 137 1 200 44 14 10 28 18 31
18 2 0 8 -33 12 -72 3 -40 16 -116 28 -168 12 -52 21 -117 21 -145 0 -71 -40
-163 -83 -192 -21 -15 -29 -24 -20 -27 8 -2 21 -6 30 -9 28 -9 102 13 137 40
18 14 35 23 36 22 2 -2 11 -30 20 -61 9 -31 32 -86 51 -122 19 -37 35 -68 35
-71 0 -3 -21 -16 -47 -29 -151 -77 -254 -300 -239 -517 15 -207 99 -379 256
-526 144 -134 363 -196 502 -143 29 11 59 20 65 20 7 0 25 -24 39 -52 80 -158
207 -301 348 -393 207 -135 422 -205 896 -292 50 -10 57 -23 59 -108 1 -78
-53 -145 -118 -145 -20 0 -157 -69 -366 -183 -238 -131 -395 -235 -455 -303
-90 -103 -273 -575 -384 -989 -40 -150 -38 -160 39 -197 25 -12 45 -26 45 -31
0 -5 -18 -98 -40 -207 -64 -320 -71 -401 -75 -805 -2 -198 -1 -388 2 -422 4
-54 7 -63 25 -63 17 0 19 4 12 48 -13 79 -10 637 4 782 33 347 70 550 100 550
9 0 48 -14 87 -30 38 -17 88 -30 110 -31 33 -1 36 -2 15 -8 -22 -6 -23 -8 -7
-14 24 -9 23 -9 42 9 9 9 19 13 23 9 4 -3 -1 -12 -11 -20 -16 -11 -14 -13 18
-19 20 -4 55 -15 78 -25 52 -22 111 -36 105 -25 -3 5 -2 18 3 29 14 36 10 -71
-11 -265 -10 -102 -26 -282 -35 -400 -9 -118 -22 -289 -30 -380 -8 -91 -15
-175 -15 -187 l0 -23 1225 0 1225 0 0 33 c0 53 -29 409 -61 762 -30 324 -43
512 -33 468 5 -19 12 -23 45 -23 32 0 39 3 39 20 0 12 7 20 16 20 23 0 44 25
44 54 0 19 5 26 20 26 11 0 20 -4 20 -10 0 -5 7 -10 15 -10 8 0 15 -6 15 -12
0 -10 3 -9 9 1 6 9 11 10 15 2 9 -14 78 -14 110 0 14 7 23 17 19 22 -4 6 0 8
9 4 9 -3 28 1 43 9 31 16 51 18 59 6 11 -18 47 -201 66 -338 40 -283 48 -603
24 -946 -6 -84 -6 -88 14 -88 19 0 20 8 27 187 18 456 -9 806 -91 1190 -13 62
-24 117 -24 123 0 5 17 17 37 25 41 17 83 52 83 69 0 6 -20 81 -45 166 -160
543 -287 859 -387 962 -45 46 -201 154 -343 235 -190 110 -448 243 -470 243
-15 0 -41 16 -66 40 l-41 39 4 75 c2 41 6 77 9 81 4 3 78 19 166 35 598 111
939 311 1108 650 15 30 29 57 31 59 2 2 33 -5 69 -14 162 -44 374 14 515 143
217 196 304 501 224 782 -34 120 -122 227 -218 266 -25 11 -46 24 -46 29 0 6
19 42 43 80 46 74 80 151 97 223 10 40 13 43 28 29 34 -30 82 -47 131 -47 27
0 53 5 56 10 3 6 0 10 -8 10 -24 0 -73 64 -95 123 -19 50 -20 58 -6 103 11 36
44 247 44 280 0 2 18 -8 41 -23 44 -29 142 -44 174 -26 15 9 13 13 -18 31 -60
38 -109 126 -150 270 -19 65 -21 90 -15 162 32 364 -133 781 -437 1110 -90 97
-97 111 -25 48 98 -85 167 -164 224 -258 38 -62 24 -16 -30 100 -96 204 -247
352 -468 455 -123 59 -198 77 -346 84 l-125 6 -33 149 c-18 81 -44 174 -59
205 -52 110 -168 197 -277 207 l-51 5 62 -27 c84 -35 159 -111 212 -213 57
-109 54 -122 -16 -65 -79 65 -201 121 -293 136 -64 10 -84 19 -140 60 -135 99
-346 187 -535 222 -83 15 -306 27 -385 20z m560 -1875 c30 -12 82 -23 114 -25
34 -2 66 -10 76 -19 21 -19 29 -19 52 2 17 15 18 15 13 1 -6 -14 2 -16 57 -11
35 3 88 11 119 19 31 8 65 14 75 14 16 -1 16 -2 -4 -13 -34 -19 -17 -27 59
-27 37 0 69 -4 71 -9 2 -5 53 -26 113 -46 61 -20 113 -40 117 -44 15 -13 28
-154 34 -376 5 -200 18 -347 39 -435 5 -20 3 -26 -12 -26 -10 0 -31 -3 -46 -7
-16 -5 -26 -4 -23 1 14 23 -434 22 -543 -2 -106 -23 -225 -88 -252 -137 -10
-19 -8 -20 11 -14 20 6 21 5 10 -15 -11 -20 -10 -21 9 -11 26 14 34 14 25 -1
-5 -8 -2 -9 9 -5 54 22 53 22 38 4 -12 -15 -12 -17 4 -11 13 6 16 4 10 -5 -8
-13 -7 -13 55 5 23 6 24 5 11 -10 -14 -16 -12 -17 20 -11 19 3 95 8 169 9 74
2 205 6 290 11 96 4 171 3 198 -3 23 -5 42 -6 42 -2 0 5 15 4 32 -1 18 -5 41
-6 50 -3 12 3 43 -11 86 -39 75 -49 109 -64 167 -72 35 -5 38 -4 21 7 -84 57
-118 106 -141 203 -18 79 -32 311 -15 260 6 -16 12 -39 14 -50 10 -52 79 -203
114 -249 22 -28 64 -69 94 -91 l55 -40 12 -157 c31 -383 -27 -862 -148 -1233
-44 -135 -82 -211 -148 -300 -214 -287 -541 -436 -1168 -531 -156 -24 -210
-28 -405 -28 -241 0 -287 5 -564 60 -469 93 -712 195 -898 379 -148 145 -220
287 -297 586 -72 276 -93 466 -95 855 -1 190 2 244 13 257 7 9 11 23 8 32 -8
19 1 23 100 57 46 15 106 40 135 54 56 28 109 38 101 18 -3 -8 22 -6 79 8 46
11 114 20 153 19 39 0 171 -2 295 -4 228 -4 369 5 380 23 4 6 13 4 26 -5 26
-20 33 -19 27 6 -5 18 -3 20 16 14 23 -7 28 4 9 24 -11 10 -10 11 5 6 9 -4 17
-3 17 3 0 12 -50 50 -92 72 -16 7 -28 17 -28 21 0 5 26 21 58 35 135 64 261
183 339 321 16 29 33 50 38 45 4 -4 5 -1 1 6 -4 7 -2 20 5 28 6 8 18 38 25 67
l14 52 -6 -85 c-13 -199 -76 -336 -204 -444 l-35 -29 40 7 c57 10 161 61 213
103 83 68 150 201 178 353 7 41 16 184 20 316 l7 242 36 6 c20 3 57 6 83 6 26
0 48 5 50 12 3 9 12 9 38 0 48 -17 81 -16 74 3 -8 19 -10 19 56 -6z m2147
-341 c-3 -8 -6 -5 -6 6 -1 11 2 17 5 13 3 -3 4 -12 1 -19z m-2 -105 c-1 -38
-10 -84 -19 -103 -9 -19 -13 -26 -10 -15 4 11 9 59 12 107 2 48 8 86 12 83 4
-3 7 -35 5 -72z m-3260 -268 c-14 -91 -39 -175 -70 -234 -15 -31 -18 -32 -57
-26 -23 4 -59 7 -81 7 l-39 -1 60 60 c63 63 135 163 173 241 12 26 24 47 25
45 1 -1 -4 -42 -11 -92z m-470 -147 c-13 -57 -37 -108 -51 -108 -8 0 -14 6
-14 13 0 15 59 127 67 127 2 0 1 -15 -2 -32z m-966 -769 c27 -5 56 -18 64 -27
23 -26 92 -250 191 -620 43 -158 44 -166 14 -156 -12 3 -28 12 -34 19 -7 6
-26 18 -43 25 -17 7 -31 16 -31 21 0 5 -7 9 -15 9 -8 0 -18 16 -24 37 -13 48
3 83 47 103 32 15 33 16 28 63 -9 79 -114 224 -183 253 -49 21 -116 18 -147
-7 -38 -30 -66 -91 -66 -144 0 -39 3 -45 21 -45 12 0 41 18 65 40 36 33 51 40
84 40 27 0 47 -7 60 -20 11 -11 22 -20 25 -20 27 0 29 -1 15 -10 -8 -5 -11
-10 -6 -10 4 0 -8 -18 -27 -39 -53 -59 -67 -92 -67 -161 0 -68 20 -116 69
-167 47 -49 79 -61 188 -69 l100 -7 33 -103 c18 -57 30 -110 27 -118 -7 -17
-61 -34 -137 -42 -112 -13 -311 65 -408 159 -112 109 -188 250 -213 397 -41
236 31 463 174 554 88 56 116 62 196 45z m4426 -28 c105 -49 167 -136 203
-281 33 -130 28 -237 -18 -389 -44 -147 -181 -318 -311 -386 -129 -67 -280
-94 -370 -64 -59 20 -60 24 -23 138 19 57 35 106 37 107 2 2 45 8 96 14 111
12 144 25 193 74 100 100 87 268 -27 345 -19 13 -35 26 -35 30 1 17 58 45 100
49 56 5 86 -9 153 -71 l47 -44 0 51 c-1 75 -30 146 -70 174 -45 30 -110 30
-164 -2 -103 -60 -202 -256 -150 -298 52 -43 56 -50 51 -84 -6 -37 -76 -119
-111 -130 -12 -3 -29 -14 -40 -23 -18 -15 -18 -15 -11 19 4 19 22 87 40 150
18 63 61 216 95 340 34 124 70 238 79 254 34 60 141 73 236 27z m-2660 -2111
c-3 -5 2 -10 12 -11 10 0 27 -3 38 -6 52 -13 199 -20 371 -17 104 1 191 4 194
5 5 2 24 4 108 7 26 1 41 6 37 12 -7 11 73 -17 89 -31 14 -12 -39 -93 -91
-139 -192 -169 -540 -174 -761 -11 -42 31 -105 116 -99 134 1 5 25 22 52 37
58 33 58 33 50 20z m1955 -1745 c0 -8 -2 -15 -4 -15 -2 0 -6 7 -10 15 -3 8 -1
15 4 15 6 0 10 -7 10 -15z m-43 -10 c0 -8 -4 -12 -9 -9 -5 3 -6 10 -3 15 9 13
12 11 12 -6z m-2963 -31 c23 -9 20 -23 -4 -17 -11 3 -20 9 -20 14 0 11 3 11
24 3z m2843 -10 c-3 -3 -12 -4 -19 -1 -8 3 -5 6 6 6 11 1 17 -2 13 -5z m-37
-8 c0 -2 -7 -6 -15 -10 -8 -3 -15 -1 -15 4 0 6 7 10 15 10 8 0 15 -2 15 -4z
m-2640 -30 c0 -2 -7 -7 -16 -10 -8 -3 -12 -2 -9 4 6 10 25 14 25 6z m2720 -8
c0 -4 -7 -8 -15 -8 -8 0 -15 4 -15 8 0 5 7 9 15 9 8 0 15 -4 15 -9z m-333 -60
c-3 -7 -5 -2 -5 12 0 14 2 19 5 13 2 -7 2 -19 0 -25z"/>
<path d="M3931 5620 c-69 -19 -181 -64 -181 -73 0 -3 37 8 83 24 172 59 358
61 514 6 38 -14 77 -28 88 -32 l20 -7 -20 17 c-33 27 -91 54 -152 70 -83 22
-259 19 -352 -5z"/>
<path d="M5950 5622 c-62 -16 -167 -69 -157 -78 3 -3 31 6 64 19 162 66 345
72 511 19 50 -16 92 -28 92 -26 0 9 -105 56 -157 69 -79 21 -269 19 -353 -3z"/>
<path d="M3945 5585 c-144 -32 -253 -91 -350 -189 -65 -65 -135 -173 -135
-208 0 -8 15 -30 34 -50 19 -20 42 -48 52 -63 9 -14 30 -33 45 -41 l29 -15 0
65 c0 78 11 111 40 119 14 4 19 10 14 18 -5 8 -3 10 7 3 7 -4 28 -7 46 -5 26
2 33 -1 34 -16 0 -10 9 10 19 45 9 35 23 69 29 75 7 7 4 -6 -5 -28 -10 -23
-19 -79 -22 -131 -8 -156 41 -274 147 -354 94 -71 211 -88 332 -50 117 37 200
120 234 234 19 63 19 215 1 286 -9 35 -10 48 -2 36 6 -10 19 -28 28 -40 17
-21 17 -20 17 24 1 122 -119 242 -286 285 -70 18 -226 18 -308 0z m194 -251
c28 -35 27 -76 -2 -110 -69 -80 -181 27 -116 110 16 20 29 26 59 26 30 0 43
-6 59 -26z"/>
<path d="M5994 5585 c-127 -27 -225 -100 -271 -202 -19 -42 -23 -63 -18 -91
l7 -37 26 30 c18 21 23 24 18 10 -18 -49 -28 -136 -22 -209 10 -142 84 -254
204 -313 51 -25 68 -28 157 -28 93 0 105 2 167 33 69 34 124 87 158 152 42 81
57 227 34 325 -4 17 0 20 27 21 17 1 34 7 38 13 10 16 57 -31 83 -84 12 -21
23 -67 26 -102 7 -88 21 -89 99 -7 35 36 63 74 63 83 0 22 -57 117 -105 176
-79 96 -249 197 -386 230 -78 18 -222 18 -305 0z m73 -247 c16 -15 23 -33 23
-59 0 -45 -25 -77 -67 -85 -68 -13 -115 94 -63 146 27 27 77 26 107 -2z"/>
<path d="M4677 4296 c-15 -40 59 -86 178 -111 249 -52 653 -13 710 69 37 52
-1 73 -50 26 -41 -39 -102 -55 -270 -70 -131 -11 -273 -2 -392 25 -70 16 -133
47 -133 65 0 15 -37 12 -43 -4z"/>
<path d="M6508 1303 c7 -3 16 -2 19 1 4 3 -2 6 -13 5 -11 0 -14 -3 -6 -6z"/>
</g>
</svg>
