<svg width="400" height="74" xmlns="http://www.w3.org/2000/svg">
    <g fill-rule="nonzero" fill="none">
        <path d="M60.788 73.495V36.694h9.858V25.85h-9.858V.96H49.452v72.535h11.336zM44.852 60.762V50.741h-33.27V3.26H.247v57.501h44.606zm100.136 7.886V58.627h-29.162V43.84h23.33V33.82H91.51v-20.62h46.823V3.179h-58.16V43.84h24.152v14.787H73.52v10.021h71.467zm67.606-26.78V26.016h9.2V15.582h-9.2V.96h-11.336V41.87h11.336zM191.4 39.323V2.028h-11.336v8.707h-18.072V2.028h-11.336v37.294H191.4zm-11.336-9.857h-18.072v-9.036h18.072v9.036zm34.173 43.373V62.98h-45.673v-8.46h44.03v-9.858h-55.366v28.176h57.009zm73.274.657V36.694h9.858V25.85h-9.858V.96h-11.336v72.535h11.336zm-15.936-12.733V50.741h-33.27V3.26H226.97v57.501h44.605z" fill="#121212"/>
        <path d="M329.833 28.857c5.52 0 9.365-4.239 9.365-10.088 0-5.848-3.845-10.087-9.365-10.087-2.53 0-4.37.887-5.52 2.431V.796h-5.85v27.6h5.85v-1.97c1.15 1.544 2.99 2.43 5.52 2.43zm-.92-4.995c-2.859 0-4.699-2.135-4.699-5.093 0-2.957 1.84-5.093 4.699-5.093 2.793 0 4.567 2.136 4.567 5.093 0 2.958-1.774 5.093-4.567 5.093zm22.738 4.995c4.666 0 8.444-2.53 9.43-6.21H355.2c-.493.92-1.873 1.511-3.55 1.511-2.2 0-3.745-1.281-4.205-3.516h14.096c.099-.69.132-1.314.132-1.873 0-5.881-4.14-10.087-10.022-10.087-5.882 0-10.022 4.239-10.022 10.087 0 5.882 4.14 10.088 10.022 10.088zm4.304-11.993h-8.543c.493-2.3 1.939-3.55 4.239-3.55s3.811 1.25 4.304 3.55zm17.152 11.533V14.169h3.812V9.142h-3.812V3.424h-5.848v5.718h-3.812v5.027h3.812v14.228h5.848zm14.918.46c2.53 0 4.37-.887 5.52-2.432v1.972h5.85V9.142h-5.85v1.971c-1.15-1.544-2.99-2.431-5.52-2.431-5.52 0-9.364 4.239-9.364 10.087 0 5.85 3.844 10.088 9.364 10.088zm.92-4.995c-2.793 0-4.567-2.135-4.567-5.093 0-2.957 1.774-5.093 4.567-5.093 2.859 0 4.699 2.136 4.699 5.093 0 2.958-1.84 5.093-4.699 5.093z" fill="#FED93B"/>
    </g>
</svg>
